# xmcd
#
# Track frame offsets:
#	150
#	13180
#	26362
#	38355
#	55837
#	71162
#	82425
#	97402
#	108537
#	125825
#	141450
#	160225
#	169725
#	188705
#	204240
#	213912
#	229250
#	250162
#	265375
#	277937
#	297300
#	317417
#
# Disc length: 4410
#
# Revision: 2
# Processed by: cddbd v1.5.1PL0 Copyright (c) Steve Scherf et al.
# Submitted via: audiograbber 1.83.01
# Normalized: r1:DSETVAR1
#
DISCID=4c113816
DTITLE=Various Artist - Beyond The Bitumen
DYEAR=2000
DGENRE=Country
TTITLE0=Kasey Chambers - The Hard Way
TTITLE1=Adam Harvey - Treat Me Like A Dog
TTITLE2=Troy Cassar Daley - Right Or Wrong
TTITLE3=Paul Kelly And Uncle Bill - The Sunlander
TTITLE4=The Spencer Band - That Was Then, This Is Now
TTITLE5=Keith Urban - Days You Gotta Dance
TTITLE6=Shanley Del With Jason Sellers - Your Own Sweet Time
TTITLE7=Anne Kirkpatrick - You Can Believe In Me
TTITLE8=Adam Brand - Size Two Boots
TTITLE9=The Flood Kevin Bennet - For Good This Time
TTITLE10=Leslie Avril - Ticking Of the Clock
TTITLE11=Trev and Kym Warner - High Rolling
TTITLE12=Pigram Brothers - Roaddtrain
TTITLE13=Brent Parlane - A Million Years
TTITLE14=Bill and Audrey - Looking Back To See
TTITLE15=Keith Glass - Larrikin Town
TTITLE16=Tiffany Eckhardt - Think About You
TTITLE17=Strum - Pocket Of My Jeans
TTITLE18=Hunter And suzy Owen - Valentine's Day
TTITLE19=The Woodpickers - If Ther's A War On
TTITLE20=Tamika With The Kettleboys - Here I Am
TTITLE21=Dead Ringer Band - Hello Hopeville
EXTD=
EXTT0=
EXTT1=
EXTT2=
EXTT3=
EXTT4=
EXTT5=
EXTT6=
EXTT7=
EXTT8=
EXTT9=
EXTT10=
EXTT11=
EXTT12=
EXTT13=
EXTT14=
EXTT15=
EXTT16=
EXTT17=
EXTT18=
EXTT19=
EXTT20=
EXTT21=
PLAYORDER=
